<svg xmlns="http://www.w3.org/2000/svg" width="380.7886552931954" height="262.6128657194451" version="1.1" viewBox="0 0 492.8 339.6" xml:space="preserve">
<style type="text/css">
	.st0{fill:#000;}
</style>
<g transform="translate(-2.5 -4.071)">
		<path class="st0" d="m179.4 301.2h10.2v0.3l-3.5 3.1c-0.2 5.1-0.2 9.9-0.2 14.2 0 4.4 0.2 8.5 0.4 12.3h-4.1c0-0.2-0.1-0.6-0.4-0.9s-0.6-0.7-0.8-1l-17.5-22.1c0 6.8 0.1 13.6 0.3 20.5l3.8 2.9v0.4h-10.2v-0.4l3.5-2.9c0.3-6 0.3-13.7 0-23.3l-4.2-3v-0.3h8.8c0.4 0.7 1.1 1.8 2.2 3 1 1.4 2.3 3 3.9 4.9 1.5 1.8 3.3 4.1 5.3 6.6s4.2 5.2 6.6 8.4c0-3.7 0-7.1-0.1-10.4s-0.1-6.3-0.1-9.1l-4-3.1v-0.1zm27.9 2.7 3.4-2.4v-0.3h-12v0.3l3.4 2.4v24.1l-3.6 2.5v0.4h12.2v-0.4l-3.6-2.5c0.1-7.7 0.1-15.7 0.2-24.1zm33.7 24.4c-4.2 0.2-8.3 0.2-12.1 0-0.1-3.9-0.1-7.8 0-11.7 2.2-0.1 5.3-0.1 9.3-0.1l2.3 3.4h0.3v-9.2h-0.3l-2.3 3.5c-5.3 0-8.4-0.1-9.4-0.1 0-1.7-0.1-3.4-0.1-5.1s0-3.4 0.1-5.2c1.8-0.1 3.9-0.2 5.8-0.2h6.2l2.5 3.4h0.3v-5.9h-23.3v0.3l3.4 2.4c0.1 6.9 0.1 14.9 0 24.1l-3.4 2.5v0.4h23.9v-6.6h-0.3zm-102.7-26.8 4 3.1c0 2.8 0.1 5.8 0.1 9.1 0.1 3.3 0.1 6.7 0.1 10.4-2.4-3.2-4.6-5.9-6.5-8.4-2-2.5-3.8-4.7-5.4-6.6-1.5-1.9-2.8-3.5-3.8-4.9-1-1.3-1.8-2.3-2.2-3h-8.8v0.3l4.1 3c0.3 9.5 0.3 17.3 0 23.3l-3.4 2.9v0.4h10.1v-0.4l-3.8-2.9c-0.2-7-0.4-13.8-0.4-20.5l17.6 22.1c0.3 0.3 0.5 0.6 0.8 1 0.3 0.3 0.4 0.7 0.4 0.9h4.1c-0.3-3.8-0.4-7.9-0.4-12.3 0-4.3 0-9.1 0.2-14.2l3.5-3.1v-0.3h-10.2v0.1zm177.5-7.6c0.6 0.3 1.1 0.8 1.7 1.2s1.1 0.8 1.6 1.2c-1.1 3.9-2.1 7.4-3 10.6-0.9 3.1-1.7 5.8-2.4 8.2-0.7 2.3-1.2 4.2-1.6 5.7-0.4 1.4-0.7 2.5-0.8 3l-8.2-27.2 1.6-1.6c0.6-0.5 1.1-0.9 1.6-1.2v-0.3h-13.1v0.4l3.3 2.5c-0.9 2.8-1.7 5.5-2.5 8.2-0.7 2.5-1.5 4.9-2.1 7.2-0.7 2.2-1.3 4.3-1.8 6.3-0.6 1.9-1.1 3.8-1.6 5.5l-7.8-27.1 3.2-2.6v-0.3h-12.6v0.3c0.5 0.4 1 0.8 1.4 1.1s0.7 0.5 0.9 0.8l0.6 0.6c0.1 0.2 0.3 0.4 0.3 0.6 0.4 1.3 1 3.1 1.8 5.4 0.8 2.4 1.6 5.2 2.6 8.2s2.1 6.3 3.2 9.9 2.3 7.2 3.4 11.2h4.2c-0.1-0.2-0.1-0.3-0.1-0.4 0-0.3 0-0.5 0.1-0.7s0.1-0.5 0.2-0.8 0.2-0.5 0.2-0.7c0.4-1.3 0.7-2.7 1.1-4.2s0.8-3.2 1.3-4.8c0.5-1.7 1-3.4 1.4-5.2 0.5-1.7 1-3.5 1.5-5.2s0.9-3.3 1.4-4.9c0.4-1.7 0.9-3.2 1.3-4.5l9.9 31.5h4c0.2-0.7 0.5-1.9 1-3.8 0.5-1.8 1.2-4.2 2.1-7.2 0.9-2.9 1.9-6.4 3.1-10.4s2.6-8.6 4-13.6c0.8-0.8 1.5-1.4 2.1-1.9 0.5-0.5 0.9-0.8 1.1-1v-0.3h-9.7v0.3zm-304.8-0.2 4.6 2.8 0.3 31.9c0 1.3 0 2.4-0.1 3.4-0.1 0.9-0.1 1.9-0.3 2.7-0.1 0.8-0.4 1.6-0.7 2.3s-0.8 1.4-1.3 2c-0.7 0.8-1.6 1.5-2.6 2s-2.1 0.7-3.2 0.7c0.1-0.1 0.2-0.3 0.3-0.5 0.1-0.1 0.2-0.3 0.2-0.6 0.1-0.2 0.1-0.5 0.1-0.8s-0.1-0.6-0.2-0.9-0.4-0.6-0.6-0.9l-0.9-0.6c-0.4-0.2-0.8-0.3-1.1-0.3-0.4 0-0.7 0.1-1.1 0.2-0.3 0.1-0.7 0.3-0.9 0.6-0.3 0.3-0.5 0.6-0.7 1s-0.3 0.8-0.3 1.2c0 0.7 0.2 1.2 0.5 1.7s0.7 0.9 1.2 1.2 1 0.5 1.6 0.7 1.2 0.2 1.7 0.2c1.2 0 2.3-0.2 3.3-0.6s2-0.9 3-1.5c0.9-0.7 1.8-1.4 2.6-2.3s1.4-1.9 2-3.1c0.5-0.9 1-1.9 1.4-2.8s0.8-1.7 1.1-2.9c0.3-1 0.5-2.1 0.7-3.3s0.2-2.6 0.2-4.1c0-1.6-0.1-3.3-0.1-5s0-3.6-0.1-5.8c0-2.1-0.1-4.5-0.1-7.1-0.1-2.7-0.1-5.7-0.1-9.1l3.8-2.5v-0.3h-14.2zm48.7 28.4c0.6-1.8 0.9-3.7 0.9-6 0-2-0.3-3.8-0.7-5.5-0.5-1.7-1.2-3.1-2.1-4.3s-2-2.3-3.4-2.9c-1.3-0.7-2.8-1.1-4.5-1.1-1.6 0-3.1 0.4-4.4 1.1s-2.4 1.7-3.3 3c-0.9 1.2-1.6 2.6-2.1 4.3s-0.7 3.5-0.7 5.5c0 2.2 0.3 4.1 0.8 5.8 0.6 1.7 1.4 3.2 2.4 4.4s2.1 2.1 3.4 2.8c1.3 0.6 2.7 0.9 4.1 0.9s2.6-0.3 3.9-0.9c1.2-0.7 2.3-1.6 3.3-2.8 1.1-1.2 1.8-2.6 2.4-4.3zm4.4-14.3c0.7 1.2 1.3 2.5 1.7 3.9s0.6 2.9 0.6 4.4c0 2.2-0.4 4.2-1.2 6.1s-1.9 3.6-3.4 5.1c-1.4 1.5-3.1 2.7-5.1 3.5-2 1-4.1 1.2-6.4 1.2s-4.4-0.2-6.4-1.2c-2-0.8-3.7-2-5.2-3.5-1.5-1.4-2.7-3.1-3.5-5.1-0.9-1.9-1.3-4-1.3-6.2s0.4-4.3 1.3-6.3c0.8-2 2-3.6 3.5-5.1s3.2-2.6 5.2-3.5 4.2-1.3 6.6-1.3c1.4 0 2.7 0.2 4 0.5 1.3 0.4 2.5 0.8 3.7 1.6 1.2 0.7 2.3 1.5 3.3 2.6 1 1 1.9 2.1 2.6 3.3zm30.9-6.3 3.4 2.4v10.1h-15.8v-10.1l3.4-2.4v-0.3h-11.8v0.3l3.3 2.4v24.1l-3.3 2.5v0.4h11.9v-0.4l-3.4-2.5v-11.6c5.2-0.1 10.4-0.1 15.8 0v11.6l-3.4 2.5v0.4h11.9v-0.4l-3.4-2.5c-0.1-7.5-0.1-15.5 0-24.1l3.4-2.4v-0.3h-12zm249.9 16.3-4.9-12.6-4.6 12.6zm9.7 9.9 3.4 3v0.4h-13v-0.4l3.8-2.9-3.1-7.8h-11.2l-2.8 7.8 3.8 2.9v0.4h-10v-0.4l3.5-2.9 10.3-27.1h4.3zm99.4 0.8c-4.3 0.2-8.4 0.2-12.2 0-0.1-3.9-0.1-7.8 0-11.7 2.2-0.1 5.3-0.1 9.4-0.1l2.3 3.4h0.3v-9.2h-0.3l-2.3 3.5c-5.3 0-8.4-0.1-9.4-0.1 0-1.7-0.1-3.4-0.1-5.1v-5.2c1.8-0.1 3.7-0.2 5.8-0.2h6.4l2.4 3.4h0.3v-5.9h-23.3v0.3l3.4 2.4c0.1 6.9 0.1 14.9 0 24.1l-3.4 2.5v0.4h23.9v-6.6h-0.4zm31-14.2c1.4-1.1 2-2.7 2-4.8 0-0.8-0.1-1.6-0.4-2.3s-0.7-1.4-1.3-1.9c-0.6-0.6-1.2-1-2.1-1.4-0.8-0.3-1.7-0.5-2.7-0.5h-0.7c-0.4 0-0.7 0-1.1 0.1h-1.4c-0.5 0-0.9 0.1-1.3 0.1l-0.1 12.2h3.3s4.5-0.3 5.8-1.5zm9.6 15.9c0.3 0.3 0.5 0.4 0.7 0.5v0.4h-6.8l-7-11.7c-0.3-0.5-0.6-0.8-1-1-0.3-0.1-0.9-0.3-1.5-0.3h-1.3c-0.6 0-1.2 0.1-1.9 0.1l0.1 10.2 3.4 2.3v0.4h-12.2v-0.4l3.5-2.5v-24l-3.4-2.5v-0.3h13.8c1.8 0 3.4 0.2 4.8 0.6s2.7 0.9 3.7 1.7c1 0.7 1.8 1.6 2.4 2.6 0.5 1 0.9 2 0.9 3.2 0 1.1-0.3 2.1-0.8 3.1-0.5 0.9-1.2 1.7-2 2.4-0.9 0.7-1.9 1.2-3.1 1.6s-2.5 0.6-3.9 0.7c1 0.1 1.8 0.4 2.5 0.8 0.7 0.5 1.2 1.2 1.7 2l4.7 7.3c0.2 0.2 0.4 0.6 0.7 0.9l0.9 1.2c0.5 0.1 0.8 0.4 1.1 0.7zm-85.1-16.3c2.6-2.4 4.8-4.5 6.6-6.2 1.8-1.6 3.1-2.8 4.1-3.6l4.5-2.4v-0.3h-10v0.3l1.5 2.3c-1 1.1-2.1 2.2-3.2 3.2s-2.1 2-3.2 3c-1 1-2 1.9-3 2.8s-1.9 1.7-2.8 2.4c3.4 3.4 7.4 7.7 11.9 13l-1.3 2.3v0.4h10.8v-0.4l-2.3-2.3c-6.3-6.7-10.8-11.4-13.6-14.5zm-5.4-9.8 3.5-2.4v-0.3h-12.1v0.3l3.4 2.4c0.1 8 0.1 16 0 24.1l-3.5 2.5v0.4h12.2v-0.4l-3.5-2.5c-0.1-8.2-0.1-16.2 0-24.1zm-19.4 24.3h-11c-0.1-8.2-0.1-16.2 0-24.3l3.8-2.4v-0.3h-12.3v0.3l3.4 2.4c0.1 8 0.1 16 0 24.1l-3.4 2.5v0.4h22.8v-6.6h-0.4z"/>
	
		<path class="st0" d="m262.6 50.8c-0.2-0.1-0.3-0.2-0.4-0.3-0.2-0.1-0.3-0.2-0.5-0.3-0.7-0.3-1.3 0.4-1.9-0.1-0.4-0.3-0.7-0.7-1.1-1.1-0.4-0.3-0.7-0.6-1.1-0.9-0.3-0.2-1.3-1-1.6-0.4-0.2 0.4-0.2 0.8-0.2 1.2 0 0.5 0 1.1 0.1 1.6 0.1 1.1 0.5 2.3 1 3.4 0.3 1 1.3 0.1 1.9 0 0.3-0.1 0.6-0.2 1-0.2 0.2 0 0.4 0.2 0.5 0.4 0.2 0.2 0.5 0.4 0.8 0.6 0.4 0.2 0.9 0.2 1.3 0 0.2-0.1 0.4-0.3 0.5-0.4 0.2-0.1 0.2-0.1 0.4 0 0.6 0.3 1.1 0.7 1.7 1 0.1 0.1 0.4 0.2 0.5 0 0.2-0.2 0-0.5 0-0.7-0.2-0.6-0.4-1.1-0.4-1.7-0.1-1 0.1-2 0.6-2.8 0.1-0.2 0.6-0.9 0.3-1.1-0.2-0.2-0.7 0-0.9 0.1-0.8 0.3-1.2 0.5-1.8 0.9-0.1 0.1-0.1 0.3-0.1 0.5-0.3 0-0.2 0.5-0.6 0.3m-55 146.9s-5 0.4-8 0c-2.1-0.3-4-1-4.5-1.2s-0.8-0.5-1.3 0.5c-0.6 1.1-3.8 7.2-4.9 9.9-1.1 2.8-3.1 7.8-3.6 9.6s-1.6 4.4-1.1-0.4c0.5-4.9 3.8-13.2 4.6-15 1.6-3.5 2.7-4.4 3.3-5.7 0.2-0.4-0.6-0.9-0.8-1-0.1-0.1-0.4-0.3-0.7-0.7s-0.1-1.1-0.5-0.6c-1.3 1.7-3.4 5.2-4.7 8.8-1 2.6-2.8 8.9-3.5 12-0.5 2.1-0.9 3.7-1.3 4.7-0.3 0.7-0.7 1.5-1 1.8-0.2 0.2-0.5 0.5-0.9 0.8 0 0-0.1 0.1 0 0.1 0.8-0.2 1.8-0.1 2 0.2 0.4 0.4 0.4 1.1-0.6 1.7-0.6 0.4-1.1 1.1-1.8 1.9-0.6 0.6-1.7 0.2-1.8-1 0-0.1-0.1-0.1-0.1 0-1 2.3-0.7 3.7-0.7 3.7l-0.2 0.4s-1.1 2.3-0.1 5.1c0.6 1.7 1.6 3.3 1.6 3.3h2.2s1.3 3.3 2.7 6.6c1.5 3.3 2.7 4.3 6.1 5.7 3.8 1.5 7.2 1.8 9.1 1.7s2.6-0.3 2.8-0.7c0.6-1.2-0.2-1.5-0.2-1.5s0.9-1.5-0.4-3.1c-0.9-1.1-4.3-3.1-4.3-3.1s-2.1-2.7-2.9-5.7c-0.9-3.5-1.2-5.4-1.1-7.7 0-0.1 0.1-0.1 0.2-0.1 0.8-0.2 1.2-1 1-1.7-0.1-0.3-0.2-0.6-0.4-0.8-0.1-0.1-0.1 0-0.1 0 0 0.3-0.1 0.5-0.4 0.7-0.7 0.4-0.8-0.5-1.6-0.7-0.9-0.2-1.2-0.7-0.6-1.1 0.1-0.1 0.8-0.6 1.5-0.2 0.2 0.1 0.4 0.3 0.6 0.5 0 0 0.1 0.1 0.1 0v-0.3c0.1-0.8 0.3-2.3 1.6-5.5 2.1-4.9 9.1-14.2 10.9-16.4 2.3-2.9 3.4-3.9 3.8-4.5 0.8-0.6 1.4-1.1 0-1m-23.6 41.8c-0.8 0.9-2-2-2.4-3.2-0.5-1.2-2-2.8-2-4.4s0.4-2 0.4-2c0.8-0.8 1.2 0.5 1.3 1.6 0.1 1.2 0.9 2.1 2.1 3.7 1.1 1.5 1.5 3.2 0.6 4.3m6.9 4c0.2 0.3 0.5 1.2 1.2 1.6 0.4 0.2 0.9 0.4 1.2 0.6 0.2 0.1 0.9 0.4 0.7 0.5-0.1 0.1-0.7 0.1-0.8 0.1-0.4 0-1.2-0.1-1.9-0.5-0.8-0.5-2.4-0.8-3.3-1.5s0.6-1.5 1.5-1.5 1.4 0.7 1.4 0.7m-2.6-1.2c-0.9 0-1.3 0.6-2.1 0.6-0.4 0-0.7-0.5 0.2-1.3s2.5-0.7 2.6-0.7c1.3 0.3 0.8 1.4-0.7 1.4m81-207.3c-0.2 0.6-0.3 1.5-0.6 2.5-0.5 2-1.2 2.6-1.6 3.5-0.5 0.9-0.5 1.1-0.4 1-0.1 0.2 2-1.5 3-3.8 0.3-0.7 0.4-1.5 0.5-2.2 0.4-2.9-0.5-1.9-0.6-1.7-0.2 0.3-0.3 0.7-0.3 0.7m8.6 156.1c1.2-3.5 2.9-4.8 3.2-5.4 0.2-0.3-0.2-1.6-0.6-2.3-0.1-0.2-0.1-0.2-0.2-0.3h-0.4c-0.2 0-0.5 0-0.6-0.2 0.3-1 0.4-1.9 0.6-2.7 0.2-1.1 0-2.8-0.4-4.5-0.3-1.1-0.6-1.6-0.9-1.7s0 0.6 0.1 1.8-0.1 3.1-0.8 4.5c-0.8 1.5-1.7 2.9-2 3.8s-0.2 1.6 0.5 1.8c0.2 0 0.5 0.1 0.5 0.6 0.1 0.8-0.1 2.4-2.9 5.8-0.8 0.9-2.3 2.2-3.8 3.4 0.1 0.4 0.1 0.9 0.1 1.5-0.1 0.7-0.5 1.8-0.7 1.9s-0.3 0.2-0.4 0.3c-1.4 0.9-0.2 2.5-0.2 2.5s0.9-0.4 4.6-2.7c2.6-1.9 3.5-5.9 4.3-8.1m43.4 36.1c-0.5 0-0.8 0.3-0.8 0.3s-1.5-1.2-3.4-0.2c-0.3 0.3-0.8 1-1 1.9-0.2 1.1-0.3 2.4-0.6 2.6-0.1 0.1-0.3 0.2-0.6 0-1.2-0.4-1.1-0.1-2 0.4-1 0.6-4 1.4-5.7 0.2 0 0-0.3-0.4-0.2-0.4 0.5 0.1 3.8 0.1 5.4-1.4 0.3-0.2 0.4-0.4 0.5-0.5 0 0 0.2-0.3-0.1-0.2-0.1 0-0.3 0.1-0.6 0.2-2.8 0.9-6.3 0.3-10.5-0.8-0.8-0.2-1.7-0.5-2.4-1 0.1-0.4 0-0.9-0.4-1.2-0.4-0.2-1-0.4-1.5-0.4-0.4-0.3-0.8-0.7-1.2-1.4-1.3-2.6-4.1-8.5-6.9-15.9-3-7.8-4.9-15-5.6-17.8 0 0-0.1-0.4-0.2-0.9 0-0.2-0.1-0.3-0.1-0.3-0.1-0.5-0.3-1.1-0.4-1.5 0-0.1-0.1-0.2-0.1-0.2-0.3-0.5-0.6 1.7-0.4 3.3-0.4 0.7-0.9 1.6-1.3 2.7-1.1 2.6-1.6 5.1-3.6 6.6-1.5 1.2-2.5 1.6-2.7 1.8s0.1 0.3 0.4 0.4c0.2 0.1 0.4 0.2 0.5 0.4 0.2 0.3 0.4 0.9 0.6 1.3 0 0.1 0.1 0.2 0.1 0.4 1.1 3 2.9 8.5 6.7 14.4 2.3 3.5 5.1 7.6 3.8 6.3-2.6-2.5-6.1-6.2-7.9-9-2.9-4.4-3.3-6-3.6-6.9-0.6-1.9-1.1-3.5-1.3-4.1 0-0.1-0.1-0.5-0.2-0.6-0.1-0.3-0.2-0.5-0.3-0.8-0.5-0.7-0.8-1.1-1.3-0.9-0.4 0.2-1.6 0.9-1.6 0.9s1.1 4.3 5.1 10.4c3.9 6.1 5.9 8.2 8.4 11.1 0.3 0.3 0.5 0.6 0.7 0.9 0.4 0.6 0.8 1.2 1.1 1.6 0 0.5-0.1 1.5 0.4 2 0.2 0.2 0.3 0.3 0.5 0.4 0.3 0.1 1.3 0.1 0.8 1.4-0.1 0.2-0.2 0.4-0.3 0.7-0.1 0.4-0.1 0.8 0.1 1.1 0.3 0.7 1 1.1 1.2 1.6 0.2 0.4 0.2 1.2 0.7 2.6 0.1 0.3 0.2 0.7 0.4 0.9 0.1 0.5 0.3 0.9 0.6 1.4 1.3 2.3 3.6 4.4 3.6 4.4l2.1 2.3s1.4-0.3 3.7-1.5c2.3-1.1 3.3-2.1 3.3-2.1l-0.5-2.5 1.5-0.6c1.5-0.6 7.3-1.5 10.6-3.3s7.3-7.4 7.8-10.1c-0.1 0-1.1-0.4-1.3-0.4m-29 13.1c-0.3 0.2-1.7 0.1-2.4-1.6-0.3-0.6-0.5-1.7-0.6-2.4s1.4-1.1 2.1-0.7 0.5 1.8 0.5 1.8c0 2.2 0.8 2.7 0.4 2.9m12-0.6c-0.9 0.4-2.7 0.8-3.7 1-1.8 0.4-2.1 0.8-3.8 1.8s-1.1-1.4-0.4-2.1 3.2-1 4.7-1c1.4 0 3.4-0.6 3.8-0.7 0.1-0.1 0.1 0.6-0.6 1m-15.9-144.6c0.6 0 1.4 0.4 1.4 0.4l0.7-1.3c1.9-0.1 3.4-1.7 3.4-3.6 0-2-1.6-3.6-3.6-3.6-0.8 0-1.6 0.3-2.2 0.7-0.1 0-0.1 0.1 0.1 0 0.4-0.1 0.8-0.2 1-0.1 0.3 0.4-0.3 0.6-0.4 1.4 0 0.3-0.1 0.7-0.4 0.8s-0.8-0.1-1-0.3-0.3-0.4-0.3-0.7c0-0.2-0.1-0.1-0.1-0.1-0.3 0.6-0.5 1.1-0.5 1.8s0.2 1.4 0.6 1.9c-0.5 1.2-1.3 2.9-1.4 3.3-0.1 0.6 1.4-0.6 2.7-0.6m4.7 2.2 0.6 0.6c0.6-0.2 0.9-0.5 1.1-1.1 0.1-0.6-0.4-1-1.5-1.1-1.1-0.2-1.7-0.4-2.2-0.5s-0.9 0.1-1.1 0.3c0.1 0.1 0.2 0.1 0.3 0.1 0.2 0.3 2.3 1.3 2.8 1.7m-45.4 48.2c1.4-1.5 3.5-3.3 4.4-3.9 1.2-0.9-0.2-0.6-4.3 2.2-1.4 0.9-3 2.5-5 5.1-2.7 3.5-7 12.2-8.4 15.1-1.2 2.4-2.9 5.2-5.1 7.2-2.5 2.2-5.4 3.1-6.8 4.4l-0.5 0.5c-0.2 0.2-0.3 0.3-0.4 0.6-0.2 0.2-0.3 0.8-0.3 1.2 0.1 0.7 0 1.4-0.6 2.1-0.3 0.3-1.1 0.9-2.9 1.6-0.1 0-0.3 0.1-0.4 0.1-0.3 0.1-1.2 0.3-1.3 0.4-1.2 0.2-1.8 0.7-0.8 1.2 0.3 0.2 0.5 0.3 1.1 0.4 0.9 0.2 1.1 0.4 1.1 0.8 0 0.5-0.6 1.4-2.9 2.1-3.6 1.1-8.7 0.9-8.7 0.9-2.5-0.1-3.8-0.2-4.1 0-0.4 0.2-0.2 0.7 1.3 1.1 0.8 0.2 3 0.6 4 1 0.6 0.2 0.4 0.7-0.3 0.8-1.1 0.2-4.7 0.2-6.8-0.5 0 0-0.8-0.3-1.1-0.4-1.1-0.6-2-1.4-2.3-2-0.2-0.4-0.3-1.1-0.6-1.3l-1.7 2.3s-0.2 0.7 1 2.2c0.2-0.2 0.2-0.6 0.3-0.9 0.2-0.4 0.7-0.7 1.1-0.2 0.3 0.4 0.2 1.1 0.1 1.5-0.1 0.2-0.2 0.4-0.2 0.7v0.2c0.8 0.6 2.1 1.3 3.9 1.7 4.9 0.9 7.9 0.1 8.8-0.2 0.3-0.1 1.4-0.3 1.5-0.1s-0.2 0.9-0.3 1.2c-0.2 0.6-0.4 0.8-0.5 1.2s0.1 0.4 0.2 0.4c0.5-0.3 0.7-0.6 1.2-1 0.4-0.4 1.8-1.6 2.1-2 1.2-1.1 1.9-1.7 1.7-2.2v-0.4c-0.1-0.2-0.1-0.3-0.1-0.5 0-0.8 0.4-1.5 1.6-2.4s2.5-1.2 3.7-2.4 0.3-2.6 1.4-3.8c1-1.2 2.8-1.7 3.3-2.5 0.9-1.3 0.9-1.6 1.8-3.1 0.6-1.1 3.6-4.2 5.4-6 3.2-3.7 4.4-7 7.2-12 3.1-5.7 5.7-9.8 8.2-12.4m-40.2-9.8-0.3 0.3c-5 4.7-2 9.4-0.1 10.6 1.3 0.8-0.1-0.5 5.7-7.7 2-2.5 5.8-4.9 6.6-5.6-0.7 0.1-2.8 0.4-5.8 1.1-4.3 0.9-5.7 0.9-6.1 1.3m78.6-28.1c1-0.6 1.5-0.7 2.1-1.2 0.4-0.3 0.9-1 0.9-1.4-0.1-0.4 0.2-0.6 0.9-0.9s0.8-0.5 1-1 0.3-0.9 0.3-0.9 0.2-0.4 1-0.5 1.8-0.5 1.8-1.4c0-0.6-0.3-1.4-0.4-1.6v-0.1c-0.2 0.3-0.8 0.8-1.7 0.4-1.2-0.4-2-0.9-2.5-1.1-0.7-0.3-1.4-0.3-1.1 0.4s0.5 1 0 1.5c-0.2 0.2-0.5 0.3-0.7 0.4-0.8 0.4-1.1 1-1 1.3s0.1 0.8-0.3 1.2-0.9 0.8-0.9 1.3-0.1 0.8-0.7 1.2c-0.5 0.4-1.2 0.4-3.2 0.6s-2.5-0.3-3.3-0.5c-0.7-0.2-1.3 0.2-1.3 0.7s0 0.7 0.6 0.8 0.6 0.5-0.1 0.7c-0.7 0.1 0.7 1 1.4 1.1 0.1 0 0.2 0.1 0.3 0.1-3.3 6.9-42.6 85-42.9 85.7-0.1 0.3 0 0.4 0.2 0.5s0.5 0.1 0.6-0.1c0.4-0.5 45.8-86.6 45.8-86.6 1.1 0 2.6-0.2 3.2-0.6m-96.4 48.8c1.7 1.4-5-7.2 14.1-20.2-11.3 2.1-13.3 5.8-14 7.2-0.3 0.6-0.8 2-0.9 2.3-0.7-4.3 3.5-7.1 5.1-8.1 6-3.4 12-3.2 23.7-6.7 0.7-0.2 3.3-1.1 3.7-1.2 2.9-1.1 4.7-2 7.2-3.5 5-3 6.1-5 8.4-7.5 0.2-0.3 0.5-0.6 0.7-0.8 0.5-0.5-0.3-0.2-1 0-1.5 0.6-3.7 1.5-5.6 2.2-1.8 0.6-3.1 1-4.6 1.4-2.6 0.6-4.5 0.2-1.8-0.8 4.2-1.5 8.4-4.2 17.6-6.7 0.5-0.1 0.9-0.2 1.4-0.4 0.3-0.1 0.7-0.1 1-0.2 2-0.4 3.8-0.5 5.4-0.5 3.2-0.1 5.1 0.4 5.1 0.4s1.8-1.7 3-3.5c0.2-0.3 0.3-0.5 0.4-0.8 0.1-0.1 0.2-0.3 0.2-0.5 0 0.1 0 0.1 0.1 0.2 0.7 1.5 2.9 6.4 4.1 5.5 0.6-0.5 1.3-5 1.6-7.1-1.6-0.8-3.9-1.9-3.7-1.8 0.4 0.1 1.7 0.5 2.3-0.2l0.1-0.1c0.2-0.2 0.3-0.3 0.5-0.4 0.3-0.1 0.6 0 0.8 0.3l0.1 0.1c0.1 0.2 0.2 0.4 0.3 0.7s0.2 0.6 0.4 0.9c0.9 1 0.6 0.5 3.1 1.6 0.2 0.1 0.4 0.2 0.6 0.2-0.3-0.3-0.6-0.7-0.9-1.1-1-1.5 1.1-1.4 1.9-0.7 1.4 1.2 0.7 1.5 0.5 2.4 1.3 0.4 2.2 0.5 2.8 0.6 1.3 0.2 1.7-0.7 1.8-1.1 0.4-1.1-1.6-0.5-2-3s0.2-4.3 1.9-5.6c0 0 0.8-0.6 2.2-1.4l1.4-0.7c0.3-0.2 0.6-0.3 0.8-0.4 0.5-0.3 0.8-0.6 0.8-0.6 0.2-0.3 0.3-0.5 0.1-0.5h-0.5c-0.5 0.1-1.2 0.1-2.2 0.1-0.7 0-1.6-0.1-2.5-0.2-0.4-0.1-0.8-0.1-1.3-0.2s-0.7-0.1-1.5-0.2c-1.4-0.2-1.6-0.3-3.2-0.7-2.1-0.6-4.4-1.4-6.3-1.8-0.1 0-0.5-0.1-0.5-0.1-1.7-0.3-3.1-0.1-4.8 0.2-1.8 0.3-3.1 0.5-4.7 0.5-0.8 0-1.7-0.2-2.4-0.4-1-0.4-1.5-0.6-1.7-0.8 0 0-1.1-0.7 2.3-1.2 2.9-0.4 5.7-0.5 6.8-0.4 3.5 0.2 5.3 0.9 5.8 1.1 0.8 0.3 1 0.4 1.6 0.6 0.5 0.2 0.6 0.2 0.9 0.3 0.2 0.1 0.4 0.1 0.6 0.2 0.5-2.3 2-8 2.9-11.2 0.8-2.9 1.8-7.7 2.2-11.6 0.8 0.3 4.3 1.4 13.4 2.8 8.3 1.2 15.8 0.8 17.1 0.3s4.1-2 4.4-3.4c0.4-2.4-3.4-8.1-6.5-11.9-1.7-2.1-3-4.3-3.4-5.5-0.1-0.2-0.1-0.4-0.1-0.6-0.1-1.2 0-2.2-1.6-2.3-0.3 0-0.5 0.1-0.7 0.1-0.3 0.1-0.4 0-0.6-0.4 0-0.1-0.1-0.2-0.1-0.3v-0.1c-0.1-0.4-0.3-0.5-0.5-0.6-0.1-0.1-0.3-0.1-0.5-0.1-0.2-0.1-0.5-0.3-0.6-0.9-0.1-0.4-0.3-1.1-0.4-1.1-0.2-0.5-0.6-0.9-0.9-1.3-0.3-0.5-0.6-1.1-0.9-1.8-0.8-1.9-0.9-3.1-1.2-3.8-0.2-0.5-0.7-0.9-1-0.9-0.2 0-0.4 0-0.6-0.1-0.8-0.1-1.4-0.3-1.1-0.3 0.2 0 0.8-0.1 1.3 0-0.1-0.3-0.3-0.6-0.4-1-0.3-0.7-0.9-1-1.3-1-0.5 0-3-0.1-3.4 0.4v0.1c0.1-0.1 0.3-0.1 0.5-0.1 0.5 0 0.7 0.4 0.8 0.9 0.1 0.6-0.1 1.1-0.1 1.1s0.8-0.2 0.9 0.4c0.2 0.6-0.1 1.3-0.1 1.3s0.4-0.4 0.8 0.1c0.1 0.1 0.1 0.2 0.2 0.3 0.1 0.3 0.1 0.4 0 0.9-0.1 0.1-0.1 0.3-0.2 0.5s-0.2 0.2-0.3 0.3 0 0.3-0.1 0.5c-0.1 0.3-0.2 0.7-0.5 1-0.1 0.1-0.3 0.2-0.4 0.2-0.4 0-0.5-0.4-0.5-0.4s-0.6 0.9-1.1 1-0.7-0.3-0.8-0.6c-0.1-0.2-0.2-2-0.5-3.1v-0.7-0.3s0.1-0.4 0.1-0.6c0.1-0.6 0.2-1.3 0.1-1.2l-0.1 0.1s-0.8 1.3-0.8 2.2v0.7 1.1h-0.1l-0.6-0.9c-0.5-0.6-1.5-1.1-2.2-0.6-0.5 0.3 0.3 0.8 0.7 1.5s0.7 1.6 1.1 2.5 0.5 1.3 1.1 1.9c0.7 0.6 2.2 1.6 3.2 2 1 0.5 2.3 1.2 2.9 1.8 0.1 0.1 0.3 0.2 0.5 0.5 0.2 0.2 0.3 0.5 0.4 0.6s0.3 0.2 0.5 0.2c0.5 0.1 1 0.1 1.5 0.1 0.3 0 0.4 0 0.6 0.1 0.4 0.2 0.2 0.6 0.1 0.7-0.1 0.2-0.3 0.4-0.6 0.5-0.1 0.1-0.3 0.2-0.5 0.2-0.2 0.1-0.4 0.1-0.6 0.1h-1-0.2c-0.3 0-0.5-0.1-0.7-0.2-0.1-0.1-0.2-0.1-0.4-0.2-0.5-0.3-0.9-0.8-1-0.9 0 0 0-0.1-0.1-0.1-0.1-0.2-0.3-0.3-0.5-0.2-0.3 0.1-0.9 0.4-0.8 0.8 0 0.1 0 0.1 0.1 0.2 0.4 0.7 0.4 1.7 0.3 2.7s0.2 2.5 1.1 1.1c0.6-1 2.6 1.4 1.7 2-0.8 0.6-1.9 0-1.3 1s1.3 0.6 2.6 1.7c0.1 0 0.2 0.1 0.3 0.1 0.2 0 0.3 0.1 0.5 0.1h0.2 0.7c0.8-0.1 1.2 0 1.4 0.1s0.1 0.3-0.2 0.6c-0.4 0.3-1 0.5-1 0.5s0.5 1.3 0.8 1.9c0.2 0.3 0.5 0.8 0.7 1.1 0.8 1.1 1.6 1.8 4.7 4 0.3 0.2 0 0.5-0.8 0.2-1.3-0.4-3.6-1.5-4.8-2.8l-0.5-0.5c-0.4-0.5-0.7-0.9-0.9-1.5-0.1-0.3-0.3-0.6-0.4-0.9s-0.3-0.6-0.4-0.7c-0.3-0.2-0.9-0.2-1.1 1.3v1.5 0.4c0 0.6-0.4 0.7-0.7 0.3-0.6-0.7-1.1-1.4-1.3-2.6v-0.5c0.1-1.1 0.2-1.8 0.6-2.2-0.4-0.3-0.8-0.4-1.8-1.6-1.2-1.5-2.8-2.1-4.3-2-2.7 0.2-3.9-2.3-5-3.3-0.8-0.7-2.9-1.8-5.2-1.7-1.8 0.1-3.2 0.3-3.4 0.2 0 0-0.3 0.4 0.6 2.2 0.5 0.9 2.1 1.2 1.9 3.4-0.1 2-1.1 3.8 0.1 5.4 0.1 0.1 0.1 0.2 0.2 0.3 0.8 1 1.4 2.7 1.1 4.4-1.4 11-4.6 17.2-5.4 19-0.8 1.7-0.9-0.1-0.9-0.1s0.1-7.4-3.1-17.3c-2.6-8.1-6.7-14.7-10.3-19.7-4-5.4-8-10-8.3-9.8-0.3 0.3 0.1 2-1 3.7-0.5 0.8-1.6 1.4-2 1.8-0.4 0.3 1.2 0.1 2.5 0.6 1.6 0.7 3.1 1.6 1.2 1.3-1.8-0.3-5.3-0.3-5 0s2.9 1.1 4.9 2.4c1.3 0.9 3 2.5 0.2 1.8s-5.4-1.4-8.5-1.6-6.4 1.3-5.6 1.6c0 0 0.1 0 0.2 0.1 0.2 0.1 1.1 0.3 2.2 1s2.5 1.9 2.4 2c0 0.1-0.2 0.1-0.5 0s-0.7-0.2-1.3-0.4c-1.1-0.4-2.3-1.4-3.5-1.3-0.7 0-0.5 0.3 0 0.6 0.4 0.2 0.9 0.5 1.2 0.7 0.9 0.5 2.6 1.6 3.9 3.7 0.8 1.3 1.5 3 2 4.6 0.3 1 0.6 1.9 0.7 2.6 0.2 1.1 0.1 1.1-0.2 0.8-0.2-0.2-0.4-0.7-0.6-1s-0.6-0.9-0.9-1.4c-0.5-0.8-1-1.6-1.6-2.4-0.9-1.4-2.2-3.4-2.9-3.2-0.7 0.1-0.1 2.3 0.5 3.6s3.2 3.6 4.4 4.9c0.3 0.3 0.5 0.6 0.8 0.8 0.2 0.2 0.3 0.4 0.5 0.6 1.4 1.8 3.4 4.5 4.7 7 1.7 3.1 2.3 4.4 3.2 6.7 0.2 0.5 0.7 1.5 2.2 2.3 2.2 1.1 1.9 1.4 2.4 2 0.5 0.5 0.9 0.7 1.9 1 0.2 0.1 1.1 0.4 1.1 0.4 1.3 0.4 1.6 0.9 1.8 1.2s0.2 0.6-0.2 0.6-1.1-0.1-2.2-0.2c-1.6-0.1-2.5 0-4.8 0.4-0.6 0.1-3 0.6-3.5 0.7-1.5 0.3-3 0.1-4.7-0.7-1.1-0.5-2.5-1.8-3.1-2.6-0.7-0.8-1.3-2.2 0.8-0.9 1.4 0.9 3.2 1.5 5 1.6h0.8c1 0 2.7 0 4-0.1 1.4-0.1 2 0 2-0.1s-0.1-0.2-0.3-0.4c-0.5-0.3-1-0.6-2.3-0.9-2.3-0.4-6.3-0.4-8.2-3.6-0.8-1.4 1-0.3 2.8 0 1.3 0.2-0.5-1.8-1.5-3-0.9-1.1-2.3-2.1-5.8-5.1-3.5-3.1-5.5-5.9-7-7.9-1.8-2.2-2.7-4.5-2.9-7-0.1-1.7 0.5-3.9 1-4.9 0.2-0.4 0.6-1.2 0.1-1.1-0.4 0.1-1 0.6-1.8 1.7 0 0-0.6 0.9-1 2.5-0.6 3.2 0.5 8.6 1.3 11.4 0 0.1 0.8 2.7 2.2 6.2 0.9 2.2 2.3 5 3.6 7.2 1.1 1.8 2.7 4.3 3.9 6.1 1 1.5 2.8 3.8 2.8 3.9 0.4 0.5 1.5 1.6 2 2.1 0.5 0.4 1.7 1.2 2.4 1.6 1.4 0.7 3.9 1.5 5.4 2.1 2.1 0.8 7.4 2.8 8.3 3.2 2.8 1.1-3.8-0.3-8.6-1.3-2.6-0.6-4.7-1-6.5-1.9-1.4-0.7-2.7-1.7-3-2.1l-0.1-0.1c-0.1-0.1-0.2 0-0.2 0.3 0 0.2-0.1 0.4-0.2 1.3-0.1 0.4-0.2 0.9-0.3 1.3-0.8 2.8-2.2 5.8-5 9.1 0.2-1.2-0.4-1.9-1.8-0.9-4.9 3.2-7.8 4.6-11.8 4.4-3-0.2-4.7-1.9-4.9-1.3 0 0.1-0.1 0.4 0 0.7 0.1 1 1.5 3 3.4 3.8 1.4 0.6 2.9 1 4.8 0.9-4.7 1.3-5.6 0.4-14.4 4.6-7.3 3.5-17.5 13.1-17.5 27.8 0.3 3.7 3 6.9 3.4 7.2m67.7-78.9c-0.7 0.2-1.4-0.3-1.6-1.1s0.2-1.6 0.8-1.7c0.7-0.2 1.4 0.3 1.6 1.1s-0.2 1.5-0.8 1.7m3.3 6.4c0.2 0.8-0.2 1.6-0.8 1.7-0.7 0.2-1.4-0.3-1.6-1.1s0.2-1.6 0.8-1.7c0.7-0.2 1.4 0.3 1.6 1.1m-17-25.4c0.2-0.4 3.9-2.1 4.5-2.1 0.9 0-1.4 1.9-1.1 2.5 0.2 0.3 2.8 2.2 5.9 5.5 2.7 2.9 3.7 4.8 4.1 5.6 0.3 0.6 0.7 1.7 0.6 2s-1.2-1.6-3.6-4.2c-4.6-5-10.5-8.9-10.4-9.3m38.9-18.4c0.1-0.5 0.3-1 0.1-1 0 0-0.3 0-0.5 0.5s-0.2 1.2-0.1 1.3 0.4-0.3 0.5-0.8"/>
		<path class="st0" d="m266.3 33.7-0.1-0.1c-0.3-0.2-1.1-0.3-1.5-0.3h-0.3c-1.5 0-2.3-0.2-2.7-0.4-0.1-0.1-0.2-0.1-0.2-0.2-0.2-0.1-0.2-0.2-0.3-0.4 0-0.1-0.1-0.2-0.2-0.4 0 0 0-0.1-0.1-0.1-0.2-0.2-0.4-0.3-0.6-0.5v-0.2c0-0.1 0-0.1 0.1-0.1 0 0 0-0.1 0.1-0.1v-0.1c0-0.1 0-0.2-0.1-0.3l-0.3-0.3c-0.2-0.1-0.4-0.3-0.6-0.4l-0.6-0.3c-0.2-0.1-0.6-0.1-0.6-0.1-0.4 0-0.9 0-1 0.3-0.1 0.1-0.2 0.4-0.2 0.5l-0.3 1.2c-0.3 2.4 0.4 3.4 0.5 3.6v0.1c0 0.1-0.2 0.1-0.6 0.1-0.5 0-2.1-1.2-2.3-1.3l-0.1-0.1c-0.1-0.2-0.1-0.5-0.3-1.2 0-0.2-0.2-1.1-0.4-1.6-0.2-0.4-0.3-0.6-0.5-0.8l-0.2-0.2c-0.1-0.1-0.3-0.2-0.4-0.3v-0.1-0.1c0.2-0.2 0.5-0.2 0.7-0.2 0.2 0.1 0.3 0.2 0.4 0.3 0 0 0 0.1 0.1 0.1-0.1-0.5-0.2-1.1-0.5-1.5-0.2-0.2-0.3-0.3-0.6-0.3-1.2-0.2-2 0.7-2.4 1.6-0.1 0.3-0.2 0.6-0.1 0.8 0.1 0.9 0.3 1.2 0.6 1.9s0.3 1.2 0.4 1.8c0 0.6 0.3 0.7 0.3 0.7 0.5 0.4 1.1 0.3 1.2 0.3s0 0.1 0 0.3c-0.1 0.4-0.6 1-1 0.9-0.1 0-0.1-0.1-0.2-0.2-0.2-0.3-0.7-0.7-1.7-1.2-1.1-0.6-2.4-0.3-2.8 0-0.1 0.1-0.1 0 0 0.7 0.1 0.9 0 1.5-0.2 2.1-0.3 1-0.1 1.3-0.1 1.5 0.3 1.2 1.3 2.2 2.2 3.2 1.2 1.3 3.2 3 3.8 3.2 0.8 0.4 1.3-1.6 1.4-1.8 0-0.1 0-0.1-0.1-0.1-0.3-0.1-1.1 0.1-1.5 0-0.2 0-0.3-0.3-0.1-0.4 0.5-0.4 1.4-1 1.5-0.9h0.1c0.1 0.1 0.6 0.5 0.7 0.6l1.8 1.8c0.2 0.2 1.3 1.3 2.6 1.9 1 0.5 2.9 1.2 3.9 0.5 0.5-0.3 0.6-0.9 0.7-1.2 0.1-0.4 0.6-1 0.8-1.2 0.1-0.2-0.9 0.3-1.2 1-0.1 0.2-0.3 0.7-0.8 0.7-0.2 0-0.5-0.1-0.7-0.3 0.1-0.1 0.1-0.3 0.2-0.4 0.1-0.3 0.1-0.4 0-0.6 0-0.1 0-1.4 0.4-1.9l0.4-0.4s0.2-0.3 0.2-0.7 0.2-0.7 0.4-0.9c0.1-0.1 0.2-0.2 0.4-0.3 0.1-0.1 0.3-0.4 0.4-0.6 0.1-0.5 0.3-1 0.6-1.1h0.9c0.3 0 0.7-0.2 0.8-0.6s0.2-0.6 0.2-2.2c-0.1-1.4 0-2.4-0.3-2.7m-7.4 5c-0.5 0.3-0.5 0.8-0.8 0.7 0 0-0.1 0-0.1-0.1-0.2-0.1-0.3-1 0.2-1.3 0.7-0.4 1.6-0.1 1.6-0.1 0.3 0.3-0.5 0.5-0.9 0.8"/>
		<path class="st0" d="m280.1 99.5s-1.8 0.2-2.5 0.4-1.3 0.7-1.1 1.1 0.9 0.4 2.3-0.3c1.3-0.6 1.9-1.2 1.3-1.2"/>
		<path class="st0" d="m268 68.9c0.1-1.2-1.9-0.8-1.5-0.1 0.3 0.8 0.2 1.5 0.2 1.5s1.3-0.2 1.3-1.4"/>
		<path class="st0" d="m265.2 64.3 0.4 1.2s1.1 0.3 1.3-0.9c0.2-1.3-2-1.2-1.7-0.3"/>
		<path class="st0" d="m249.8 23.2s-0.3 0.7-1.9 0.6c-1.5-0.1-2.4 0-2.9 1.7-0.4 1.7 0.1 3 0.4 3.9 0.3 1 0.4 1.9-0.2 2.3s-1.1 0.1-1.1 0.7c0 0.3 0.5 0.7 0.8 0.7 0.7 0.1 1.1-0.2 1.6-0.3 0.5-0.2 1.2-0.1 1.8 0.2 0.8 0.4 0.3-0.7-0.8-1.9-1.3-1.4-1.4-3.9-1.1-5.1 0.6-1.9 2.3-1.4 3-1.8 0.8-0.4 0.7-1.3 0.4-1"/>
		<path class="st0" d="m244.1 21.2c0.4 0.3 0.8 0.6 1.4 0.7 0.4 0.2 1.2 0.4 1.8 0.4 1.5 0.2 2 0 3.7 0.1 0.8 0.1 2.1 0.2 3.5 0.7 3.7 1.3 7.4 4.8 8.1 5.5 1 1.1 3.3 2.8 3.5 2.3 0-0.1-1-1.2-1.4-1.6-0.8-1.1-1.6-2.5-2.3-3.3-1.1-1.3-2-1.9-2.4-2.2-0.3-0.2-0.9-0.7-0.9-0.7-0.5-0.6 0.7-0.2 1.3 0 0.7 0.3 2.4 1.1 4.1 2.4 1 0.7 1.8 1.5 2.4 2.2 1.1 1.4 1.7 2.7 2.6 3.8 0.6 0.6 1.3 1.2 2.1 1.6 2.8 1.2 5.1 1.3 6.1 1 1.5-0.4 2-0.9 1.9-1.4l0.4 0.4c0.2 0.2 0.4 0.4 0.7 0.6 0.1 0 0.2 0.1 0.3 0.1 0.3 0.1 0.7 0 0.8 0.1s0 0.3-0.2 0.5c0 0.1 0.1 0.2 0.2 0.4 0.1 0.3 1.2 0.4 1.2 0.4s1.3 0.1 1.2-0.1c0 0 0.1-0.2-1-1.9-0.2-0.4-2.9-2.3-3.4-2.7s-1 0-0.9 0.6c0 0.3 0.2 0.6 0.4 0.9-0.5-0.4-1.4-0.7-2.4-0.9-2.3-0.5-2.5-0.7-3.7-1.7-0.2-0.2-0.2-0.3-0.2-0.3s2.4-4.1 4.2-5.9 3.5-3 3.9-4.1-1.7-7.5-8.7-11.4-12.2-3.9-14-3.4-2.1 1.4-2.2 2.5-0.2 3.4-0.6 5.3-0.7 2.5-0.6 3.1c0 0.4 0.3 0.7 0.6 1.1 0.4 0.5 1 1 1.5 1.5 1 0.8 2.3 1.9 3 2.9s-0.4 0.7-1.1 0.2-2.7-1.8-4.8-2.6c-0.7-0.3-1.7-0.6-2.3-0.8-3-0.9-6.1-0.9-7.9 0.5-1.3 1-0.7 2.4 0.1 3.2"/>
	</g>
</svg>